<mxfile host="app.diagrams.net" modified="2024-03-08T07:56:00.939Z" agent="Mozilla/5.0 (Windows NT 10.0; Win64; x64) AppleWebKit/537.36 (KHTML, like Gecko) Chrome/122.0.0.0 Safari/537.36" version="23.1.6" etag="_HWy56P2KXs2waaPLdHj" type="github">
  <diagram name="Sayfa -1" id="tzNZq0ZxW2mx2WXj_0a-">
    <mxGraphModel>
      <root>
        <mxCell id="0" />
        <mxCell id="1" parent="0" />
      </root>
    </mxGraphModel>
  </diagram>
</mxfile>
